<svg width="30" height="30" viewBox="0 0 30 30" fill="none" xmlns="http://www.w3.org/2000/svg">
<path d="M26.25 24.9999C26.25 22.8229 24.163 20.9708 21.25 20.2844M18.75 25C18.75 22.2386 15.3921 20 11.25 20C7.10786 20 3.75 22.2386 3.75 25M18.75 16.25C21.5114 16.25 23.75 14.0114 23.75 11.25C23.75 8.48858 21.5114 6.25 18.75 6.25M11.25 16.25C8.48858 16.25 6.25 14.0114 6.25 11.25C6.25 8.48858 8.48858 6.25 11.25 6.25C14.0114 6.25 16.25 8.48858 16.25 11.25C16.25 14.0114 14.0114 16.25 11.25 16.25Z" stroke="white" stroke-width="2" stroke-linecap="round" stroke-linejoin="round"/>
</svg>
