<svg width="22" height="23" viewBox="0 0 22 23" fill="none" xmlns="http://www.w3.org/2000/svg">
<path d="M21 18.2502V11.3153C21 10.6474 20.9994 10.3132 20.9182 10.0024C20.8462 9.72698 20.7281 9.46634 20.5682 9.2308C20.3878 8.96502 20.1369 8.74461 19.6343 8.30478L13.6343 3.05478C12.701 2.23818 12.2344 1.83008 11.7092 1.67478C11.2465 1.53793 10.7533 1.53793 10.2905 1.67478C9.76577 1.82996 9.29981 2.23767 8.36795 3.05305L2.36597 8.30478C1.8633 8.74462 1.61255 8.96502 1.43213 9.2308C1.27224 9.46634 1.15319 9.72698 1.08121 10.0024C1 10.3132 1 10.6474 1 11.3153V18.2502C1 19.4151 1 19.9973 1.1903 20.4567C1.44404 21.0693 1.9304 21.5565 2.54297 21.8103C3.0024 22.0006 3.58482 22.0006 4.74968 22.0006C5.91453 22.0006 6.4976 22.0006 6.95703 21.8103C7.5696 21.5565 8.05584 21.0694 8.30957 20.4568C8.49987 19.9974 8.5 19.4149 8.5 18.2501V17.0001C8.5 15.6194 9.61929 14.5001 11 14.5001C12.3807 14.5001 13.5 15.6194 13.5 17.0001V18.2501C13.5 19.4149 13.5 19.9974 13.6903 20.4568C13.944 21.0694 14.4304 21.5565 15.043 21.8103C15.5024 22.0006 16.0848 22.0006 17.2497 22.0006C18.4145 22.0006 18.9976 22.0006 19.457 21.8103C20.0696 21.5565 20.5558 21.0693 20.8096 20.4567C20.9999 19.9973 21 19.4151 21 18.2502Z" stroke="white" stroke-width="2" stroke-linecap="round" stroke-linejoin="round"/>
</svg>
