<svg width="103" height="30" viewBox="0 0 103 30" fill="none" xmlns="http://www.w3.org/2000/svg">
<path d="M0.144 29.08V6.136H2.736L2.864 8.664C3.44 7.78933 4.21867 7.11733 5.2 6.648C6.20267 6.17867 7.28 5.944 8.432 5.944C10.1387 5.944 11.536 6.328 12.624 7.096C13.712 7.84267 14.512 8.86667 15.024 10.168C15.5573 11.4693 15.824 12.9413 15.824 14.584C15.824 16.2267 15.5573 17.6987 15.024 19C14.4907 20.3013 13.6693 21.3253 12.56 22.072C11.4507 22.8187 10.032 23.192 8.304 23.192C7.45067 23.192 6.68267 23.1067 6 22.936C5.31733 22.744 4.72 22.4773 4.208 22.136C3.696 21.7733 3.248 21.3573 2.864 20.888V29.08H0.144ZM8.08 20.792C9.31733 20.792 10.2987 20.5147 11.024 19.96C11.7493 19.384 12.272 18.6267 12.592 17.688C12.9333 16.7493 13.104 15.7147 13.104 14.584C13.104 13.432 12.9333 12.3867 12.592 11.448C12.272 10.5093 11.7387 9.76267 10.992 9.208C10.2453 8.65333 9.25333 8.376 8.016 8.376C6.90667 8.376 5.95733 8.664 5.168 9.24C4.4 9.79467 3.81333 10.552 3.408 11.512C3.00267 12.4507 2.8 13.4853 2.8 14.616C2.8 15.7893 2.992 16.8453 3.376 17.784C3.76 18.7227 4.34667 19.4587 5.136 19.992C5.92533 20.5253 6.90667 20.792 8.08 20.792ZM19.4565 23V0.375999H22.1765V23H19.4565ZM33.4965 23.192C31.1712 23.192 29.4005 22.5733 28.1845 21.336C26.9898 20.0987 26.3925 18.2 26.3925 15.64V6.136H29.1125V15.512C29.1125 16.6213 29.2725 17.5707 29.5925 18.36C29.9125 19.1493 30.3925 19.7573 31.0325 20.184C31.6938 20.5893 32.5152 20.792 33.4965 20.792C34.5205 20.792 35.3632 20.5893 36.0245 20.184C36.6858 19.7573 37.1658 19.1493 37.4645 18.36C37.7845 17.5707 37.9445 16.6213 37.9445 15.512V6.136H40.6645V15.64C40.6645 18.2 40.0458 20.0987 38.8085 21.336C37.5925 22.5733 35.8218 23.192 33.4965 23.192ZM51.038 23.192C50.27 23.192 49.4913 23.1173 48.702 22.968C47.934 22.8187 47.2087 22.5627 46.526 22.2C45.8647 21.8373 45.31 21.3467 44.862 20.728C44.414 20.1093 44.126 19.3413 43.998 18.424H46.75C46.9633 19 47.3047 19.4693 47.774 19.832C48.2647 20.1733 48.8087 20.4187 49.406 20.568C50.0247 20.7173 50.6113 20.792 51.166 20.792C51.5073 20.792 51.902 20.7707 52.35 20.728C52.798 20.6853 53.2247 20.5893 53.63 20.44C54.0567 20.2693 54.398 20.024 54.654 19.704C54.9313 19.384 55.07 18.936 55.07 18.36C55.07 17.9333 54.974 17.5813 54.782 17.304C54.59 17.0267 54.3233 16.8027 53.982 16.632C53.6407 16.44 53.2247 16.3013 52.734 16.216C51.7313 16.0027 50.654 15.8 49.502 15.608C48.3713 15.416 47.3687 15.0533 46.494 14.52C46.1953 14.328 45.918 14.1147 45.662 13.88C45.4273 13.624 45.2247 13.3467 45.054 13.048C44.8833 12.728 44.7447 12.3867 44.638 12.024C44.5527 11.64 44.51 11.224 44.51 10.776C44.51 9.944 44.67 9.22933 44.99 8.632C45.3313 8.01333 45.8007 7.512 46.398 7.128C46.9953 6.72267 47.678 6.424 48.446 6.232C49.2353 6.04 50.078 5.944 50.974 5.944C52.0833 5.944 53.0753 6.12533 53.95 6.488C54.846 6.82933 55.582 7.34133 56.158 8.024C56.734 8.68533 57.0753 9.50667 57.182 10.488H54.654C54.5047 9.86933 54.0993 9.368 53.438 8.984C52.7767 8.57867 51.934 8.376 50.91 8.376C50.5687 8.376 50.1847 8.408 49.758 8.472C49.3313 8.51467 48.926 8.62133 48.542 8.792C48.158 8.94133 47.838 9.176 47.582 9.496C47.326 9.79467 47.198 10.2 47.198 10.712C47.198 11.1813 47.3153 11.576 47.55 11.896C47.806 12.216 48.158 12.472 48.606 12.664C49.054 12.856 49.566 13.016 50.142 13.144C50.8887 13.2933 51.71 13.4533 52.606 13.624C53.502 13.7733 54.206 13.9333 54.718 14.104C55.4007 14.3173 55.966 14.616 56.414 15C56.8833 15.384 57.2247 15.8427 57.438 16.376C57.6727 16.9093 57.79 17.528 57.79 18.232C57.79 19.2347 57.5873 20.056 57.182 20.696C56.798 21.336 56.2753 21.8373 55.614 22.2C54.9527 22.5627 54.2167 22.8187 53.406 22.968C52.6167 23.1173 51.8273 23.192 51.038 23.192ZM61.1753 23V6.136H63.7993L63.9273 8.152C64.2899 7.64 64.6953 7.224 65.1433 6.904C65.6126 6.584 66.1246 6.34933 66.6793 6.2C67.2553 6.02933 67.8633 5.944 68.5033 5.944C69.6766 5.944 70.6259 6.2 71.3513 6.712C72.0766 7.20267 72.6206 7.85333 72.9833 8.664C73.3673 8.088 73.8046 7.59733 74.2953 7.192C74.8073 6.78667 75.3726 6.47733 75.9913 6.264C76.6313 6.05067 77.3353 5.944 78.1033 5.944C79.3406 5.944 80.3326 6.21067 81.0793 6.744C81.8473 7.27733 82.4019 8.00267 82.7433 8.92C83.0846 9.816 83.2553 10.8293 83.2553 11.96V23H80.5353V13.336C80.5353 12.7813 80.5033 12.216 80.4393 11.64C80.3966 11.064 80.2686 10.5307 80.0553 10.04C79.8419 9.528 79.5219 9.12267 79.0953 8.824C78.6899 8.504 78.1139 8.344 77.3673 8.344C76.6633 8.344 76.0659 8.51467 75.5753 8.856C75.1059 9.176 74.7219 9.61333 74.4233 10.168C74.1246 10.7227 73.9113 11.32 73.7833 11.96C73.6553 12.5787 73.5913 13.1973 73.5913 13.816V23H70.8713V13.304C70.8713 12.7707 70.8393 12.216 70.7753 11.64C70.7326 11.064 70.6153 10.5307 70.4233 10.04C70.2526 9.528 69.9539 9.12267 69.5273 8.824C69.1219 8.504 68.5566 8.344 67.8313 8.344C66.8073 8.344 66.0073 8.64267 65.4313 9.24C64.8553 9.816 64.4499 10.5307 64.2153 11.384C64.0019 12.216 63.8953 13.0373 63.8953 13.848V23H61.1753ZM94.69 23.192C92.898 23.192 91.4153 22.8293 90.242 22.104C89.0687 21.3573 88.194 20.3333 87.618 19.032C87.042 17.7307 86.754 16.248 86.754 14.584C86.754 12.8987 87.0527 11.416 87.65 10.136C88.2687 8.83467 89.1647 7.81067 90.338 7.064C91.5113 6.31733 92.9513 5.944 94.658 5.944C95.9807 5.944 97.1113 6.2 98.05 6.712C99.01 7.20267 99.7993 7.864 100.418 8.696C101.037 9.528 101.485 10.4453 101.762 11.448C102.039 12.4293 102.157 13.4213 102.114 14.424C102.093 14.616 102.071 14.808 102.05 15C102.05 15.192 102.039 15.384 102.018 15.576H89.506C89.5913 16.5573 89.8367 17.4427 90.242 18.232C90.6473 19.0213 91.2233 19.6507 91.97 20.12C92.7167 20.568 93.6447 20.792 94.754 20.792C95.3087 20.792 95.8633 20.728 96.418 20.6C96.994 20.4507 97.506 20.2053 97.954 19.864C98.4233 19.5227 98.754 19.064 98.946 18.488H101.73C101.474 19.576 100.994 20.472 100.29 21.176C99.586 21.8587 98.7433 22.3707 97.762 22.712C96.7807 23.032 95.7567 23.192 94.69 23.192ZM89.57 13.208H99.33C99.3087 12.248 99.0953 11.4053 98.69 10.68C98.2847 9.95467 97.73 9.38933 97.026 8.984C96.3433 8.57867 95.522 8.376 94.562 8.376C93.5167 8.376 92.6313 8.6 91.906 9.048C91.202 9.496 90.658 10.0827 90.274 10.808C89.89 11.5333 89.6553 12.3333 89.57 13.208Z" fill="#0091FF"/>
</svg>
